<svg width="154" height="48" viewBox="0 0 154 48" fill="none" xmlns="http://www.w3.org/2000/svg">
<path d="M71.076 37.54C69.204 37.54 67.524 37.252 66.036 36.676C64.548 36.1 63.288 35.26 62.256 34.156C61.224 33.028 60.432 31.66 59.88 30.052C59.328 28.444 59.052 26.596 59.052 24.508C59.052 22.42 59.364 20.572 59.988 18.964C60.636 17.356 61.512 16 62.616 14.896C63.72 13.768 65.016 12.916 66.504 12.34C67.992 11.764 69.588 11.476 71.292 11.476C72.324 11.476 73.26 11.56 74.1 11.728C74.94 11.872 75.672 12.04 76.296 12.232C76.92 12.424 77.436 12.628 77.844 12.844C78.252 13.06 78.54 13.216 78.708 13.312L77.376 17.02C76.8 16.66 75.972 16.324 74.892 16.012C73.836 15.676 72.684 15.508 71.436 15.508C70.356 15.508 69.348 15.7 68.412 16.084C67.476 16.444 66.66 16.996 65.964 17.74C65.292 18.484 64.764 19.42 64.38 20.548C63.996 21.676 63.804 22.984 63.804 24.472C63.804 25.792 63.948 27.004 64.236 28.108C64.548 29.212 65.016 30.172 65.64 30.988C66.264 31.78 67.056 32.404 68.016 32.86C68.976 33.292 70.128 33.508 71.472 33.508C73.08 33.508 74.388 33.352 75.396 33.04C76.404 32.704 77.184 32.392 77.736 32.104L78.96 35.812C78.672 36.004 78.276 36.196 77.772 36.388C77.292 36.58 76.716 36.772 76.044 36.964C75.372 37.132 74.616 37.264 73.776 37.36C72.936 37.48 72.036 37.54 71.076 37.54ZM82.729 37V9.784L87.085 9.064V18.388C87.565 18.22 88.117 18.076 88.741 17.956C89.389 17.836 90.025 17.776 90.649 17.776C92.161 17.776 93.409 17.992 94.393 18.424C95.401 18.832 96.205 19.42 96.805 20.188C97.405 20.932 97.825 21.832 98.065 22.888C98.329 23.944 98.461 25.12 98.461 26.416V37H94.105V27.1C94.105 26.092 94.033 25.24 93.889 24.544C93.769 23.824 93.553 23.248 93.241 22.816C92.953 22.36 92.557 22.036 92.053 21.844C91.549 21.628 90.925 21.52 90.181 21.52C89.605 21.52 89.017 21.58 88.417 21.7C87.817 21.82 87.373 21.928 87.085 22.024V37H82.729ZM108.074 37H103.718V18.172H108.074V37ZM108.542 12.664C108.542 13.48 108.278 14.128 107.75 14.608C107.222 15.088 106.598 15.328 105.878 15.328C105.134 15.328 104.498 15.088 103.97 14.608C103.442 14.128 103.178 13.48 103.178 12.664C103.178 11.824 103.442 11.164 103.97 10.684C104.498 10.204 105.134 9.964 105.878 9.964C106.598 9.964 107.222 10.204 107.75 10.684C108.278 11.164 108.542 11.824 108.542 12.664ZM126.123 27.676C126.123 25.732 125.679 24.22 124.791 23.14C123.927 22.06 122.523 21.52 120.579 21.52C120.171 21.52 119.739 21.544 119.283 21.592C118.851 21.616 118.419 21.688 117.987 21.808V32.572C118.371 32.836 118.875 33.088 119.499 33.328C120.147 33.544 120.831 33.652 121.551 33.652C123.135 33.652 124.287 33.112 125.007 32.032C125.751 30.952 126.123 29.5 126.123 27.676ZM130.587 27.604C130.587 29.044 130.395 30.364 130.011 31.564C129.651 32.764 129.123 33.796 128.427 34.66C127.731 35.524 126.855 36.196 125.799 36.676C124.767 37.156 123.591 37.396 122.271 37.396C121.383 37.396 120.567 37.288 119.823 37.072C119.079 36.856 118.467 36.616 117.987 36.352V43.66H113.631V18.784C114.519 18.544 115.611 18.316 116.907 18.1C118.203 17.884 119.571 17.776 121.011 17.776C122.499 17.776 123.831 18.004 125.007 18.46C126.183 18.916 127.179 19.576 127.995 20.44C128.835 21.28 129.471 22.312 129.903 23.536C130.359 24.736 130.587 26.092 130.587 27.604ZM152.105 27.568C152.105 29.056 151.889 30.412 151.457 31.636C151.025 32.86 150.413 33.904 149.621 34.768C148.829 35.632 147.869 36.304 146.741 36.784C145.637 37.264 144.413 37.504 143.069 37.504C141.725 37.504 140.501 37.264 139.397 36.784C138.293 36.304 137.345 35.632 136.553 34.768C135.761 33.904 135.137 32.86 134.681 31.636C134.249 30.412 134.033 29.056 134.033 27.568C134.033 26.08 134.249 24.736 134.681 23.536C135.137 22.312 135.761 21.268 136.553 20.404C137.369 19.54 138.329 18.88 139.433 18.424C140.537 17.944 141.749 17.704 143.069 17.704C144.389 17.704 145.601 17.944 146.705 18.424C147.833 18.88 148.793 19.54 149.585 20.404C150.377 21.268 150.989 22.312 151.421 23.536C151.877 24.736 152.105 26.08 152.105 27.568ZM147.641 27.568C147.641 25.696 147.233 24.22 146.417 23.14C145.625 22.036 144.509 21.484 143.069 21.484C141.629 21.484 140.501 22.036 139.685 23.14C138.893 24.22 138.497 25.696 138.497 27.568C138.497 29.464 138.893 30.964 139.685 32.068C140.501 33.172 141.629 33.724 143.069 33.724C144.509 33.724 145.625 33.172 146.417 32.068C147.233 30.964 147.641 29.464 147.641 27.568Z" fill="#110B56"/>
<g clip-path="url(#clip0_38_58)">
<path d="M-4.79999 -4.80005H52.8V52.8H-4.79999V-4.80005Z" fill="white"/>
<path d="M-4.79999 -4.80005H52.8V52.8H-4.79999V-4.80005Z" fill="white"/>
<path d="M-4.79999 -4.80005H52.8V52.8H-4.79999V-4.80005Z" fill="#110B56"/>
<path d="M33.3205 28.1642C33.322 23.9489 32.714 10.5623 32.714 10.5623C32.714 10.5623 31.461 10.3222 28.8835 10.1574L28.8805 24.2945C28.8805 25.0867 28.1875 25.7229 27.3335 25.7201C26.4745 25.7215 25.7815 25.0853 25.7815 24.2931V10.0248C25.1515 10.0083 24.4765 10.0055 23.7535 10C22.9545 10.0014 22.223 10.0151 21.539 10.0289V24.1683C21.536 24.9577 20.846 25.5911 19.9915 25.5884C19.1315 25.5884 18.437 24.9564 18.4385 24.1683L18.44 10.1671C15.9175 10.3305 14.6575 10.5581 14.6575 10.5581C14.6575 10.5581 14.0015 21.7513 14 28.1628C14 35.3165 21.1235 35.3656 21.121 38.1815C21.118 40.9918 19.7855 52.6637 19.79 59.2505C19.7855 71.324 21.5225 71.6081 23.6565 71.6095C25.795 71.615 27.526 71.3254 27.526 59.2505C27.5275 52.6664 26.197 40.9987 26.1955 38.187C26.194 35.3697 33.316 35.4179 33.3205 28.1642Z" fill="#E6ECF0"/>
</g>
<defs>
<clipPath id="clip0_38_58">
<rect width="48" height="48" rx="24" fill="white"/>
</clipPath>
</defs>
</svg>
