<svg width="52" height="52" viewBox="0 0 52 52" fill="none" xmlns="http://www.w3.org/2000/svg">
<path d="M22.9531 16.0366C20.3374 17.2115 18.5992 19.721 18.4952 22.6406L18.2877 28.7305C18.2401 29.8057 19.1095 30.674 20.1857 30.674H20.9555L19.572 39.6316C19.3646 41.0139 20.4409 42.2446 21.8243 42.2446C23.0522 42.2446 24.0771 41.2214 24.0771 39.9902V16.7017C24.0294 16.1877 23.4634 15.8297 22.9531 16.0366Z" fill="#F5FFF9"/>
<path d="M32.8413 15.9851C32.3787 15.9851 32.0201 16.3432 32.0201 16.8057V22.8952C32.0201 23.0983 31.817 23.3057 31.6133 23.3057H31.0993C30.8956 23.3057 30.6881 23.0983 30.6881 22.8952V16.7537C30.6881 16.2917 30.3296 15.9331 29.8713 15.9331C29.4082 15.9331 29.0496 16.2917 29.0496 16.7537V22.8437C29.0496 23.0506 28.8465 23.2537 28.639 23.2537H28.1288C27.9213 23.2537 27.7176 23.0506 27.7176 22.8437V16.7537C27.7176 16.2917 27.3591 15.9331 26.8965 15.9331C26.4382 15.9331 26.0791 16.2917 26.0791 16.7537V23.8669C26.0791 24.8907 26.8965 25.7633 27.9728 25.7633H28.3839L27.6142 39.839C27.5102 41.1694 28.587 42.2446 29.8713 42.2446H29.9184C31.2547 42.2446 32.2795 41.1174 32.1755 39.839L31.3024 25.7633H31.713C32.7378 25.7633 33.611 24.9427 33.611 23.8669V16.7537C33.663 16.3432 33.3044 15.9851 32.8413 15.9851Z" fill="#F5FFF9"/>
<path d="M40.3217 46.3911C40.3217 46.9528 39.8634 47.4619 39.2448 47.4619H12.7059C12.1393 47.4619 11.629 47.0042 11.629 46.3911V11.277C11.629 11.07 11.681 10.9189 11.7287 10.7635H39.1928C39.7594 10.7635 40.2697 11.2255 40.2697 11.8387V46.3911H40.3217ZM34.3287 4.62151C34.7869 4.52238 35.094 4.67351 35.25 4.82463C35.5052 5.03209 35.6606 5.33867 35.6606 5.64526V7.89967H21.6212L34.3287 4.62151ZM39.2448 7.89967H38.5791V5.64526C38.5791 4.41838 38.0169 3.29117 37.044 2.52255C36.0712 1.75825 34.8389 1.4988 33.663 1.80538L11.7807 7.43763C10.0382 7.89967 8.81021 9.43313 8.81021 11.277V46.3911C8.81021 48.5897 10.6042 50.3301 12.7535 50.3301H39.2968C41.45 50.3301 43.2445 48.5377 43.2445 46.3911V11.8387C43.1925 9.68771 41.398 7.89967 39.2448 7.89967Z" fill="#F5FFF9"/>
</svg>
