<svg width="112" height="112" viewBox="0 0 112 112" fill="none" xmlns="http://www.w3.org/2000/svg">
<path d="M56 112C86.9279 112 112 86.9279 112 56C112 25.0721 86.9279 0 56 0C25.0721 0 0 25.0721 0 56C0 86.9279 25.0721 112 56 112Z" fill="#2760F3" fill-opacity="0.5"/>
<path d="M56 104C82.5097 104 104 82.5097 104 56C104 29.4903 82.5097 8 56 8C29.4903 8 8 29.4903 8 56C8 82.5097 29.4903 104 56 104Z" fill="#2760F3"/>
<path d="M73.174 53.98V55.598C73.1717 59.3904 71.9436 63.0806 69.6727 66.118C67.4019 69.1555 64.21 71.3775 60.5731 72.4528C56.9363 73.528 53.0493 73.3988 49.4918 72.0844C45.9344 70.77 42.8971 68.3409 40.833 65.1593C38.7689 61.9778 37.7886 58.2142 38.0381 54.43C38.2877 50.6457 39.7539 47.0435 42.218 44.1606C44.6821 41.2777 48.0121 39.2685 51.7113 38.4327C55.4106 37.597 59.2809 37.9794 62.745 39.523" stroke="white" stroke-width="3.5" stroke-linecap="round" stroke-linejoin="round"/>
<path d="M73.174 41.528L55.587 59.128L50.311 53.856" stroke="white" stroke-width="3.5" stroke-linecap="round" stroke-linejoin="round"/>
</svg>
