<svg width="52" height="52" viewBox="0 0 52 52" fill="none" xmlns="http://www.w3.org/2000/svg">
<path fill-rule="evenodd" clip-rule="evenodd" d="M18.4297 0.976616C17.3339 0.976616 16.452 1.85791 16.452 2.95153V9.68987C16.452 10.7824 17.3328 11.6632 18.4297 11.6632C19.5217 11.6632 20.4035 10.7824 20.4035 9.68987V7.38995C21.3124 8.02966 21.8519 9.07345 21.8519 10.1812C21.8519 12.0737 20.319 13.6077 18.4297 13.6039C16.536 13.6077 15.0031 12.0737 15.0069 10.1812V4.52291H12.5845C11.2358 4.52291 9.95204 4.86416 8.94346 5.66474C7.93975 6.46262 7.30329 7.70791 7.1695 9.12328L6.45233 20.4387C7.00537 20.3277 7.57196 20.2854 8.151 20.3304C8.54912 20.3618 8.95158 20.4571 9.34591 20.6072L9.58046 16.1064H46.5232L47.7766 40.4208C47.8183 41.2067 47.6434 41.8242 47.3092 42.2343C46.976 42.6405 46.5351 42.8935 45.8028 42.8935H24.4974C25.4545 43.6177 26.0921 44.8023 26.2524 45.8559H46.1354C47.6309 45.8559 48.9759 45.2004 49.8263 44.1545C50.6772 43.1069 50.999 41.7278 50.9075 40.294L48.9293 9.12274C48.795 7.70737 48.159 6.46207 47.1548 5.6642C46.1473 4.86362 44.8641 4.52182 43.5142 4.52182H39.6473V2.95045C39.6473 1.85791 38.7622 0.976074 37.6702 0.976074C36.5728 0.976074 35.6958 1.85682 35.6958 2.95045V9.68932C35.6958 10.7819 36.5728 11.6626 37.6702 11.6626C38.7622 11.6626 39.643 10.7819 39.6473 9.68932V7.38941C40.5519 8.02912 41.0925 9.07237 41.0925 10.1801C41.0925 12.0732 39.559 13.6072 37.6702 13.6034C35.7803 13.6034 34.2469 12.0694 34.2469 10.1801V4.52182H20.4035V2.95045C20.4035 1.85791 19.5217 0.976616 18.4297 0.976616Z" fill="#F5FFF9"/>
<path fill-rule="evenodd" clip-rule="evenodd" d="M14.7583 21.1434H19.6717C20.3921 21.1434 20.9706 21.7257 20.9706 22.4472V26.2763C20.9706 26.9972 20.391 27.58 19.6717 27.58H14.7583C14.0378 27.58 13.4593 26.9972 13.4593 26.2763V22.4472C13.4593 21.7257 14.0378 21.1434 14.7583 21.1434Z" fill="#F5FFF9"/>
<path fill-rule="evenodd" clip-rule="evenodd" d="M25.5932 21.1434H30.5067C31.2271 21.1434 31.8051 21.7257 31.8051 22.4472V26.2763C31.8051 26.9972 31.226 27.58 30.5067 27.58H25.5932C24.8728 27.58 24.2943 26.9972 24.2943 26.2763V22.4472C24.2943 21.7257 24.8728 21.1434 25.5932 21.1434Z" fill="#F5FFF9"/>
<path fill-rule="evenodd" clip-rule="evenodd" d="M36.4282 21.1434H41.3378C42.0582 21.1434 42.6405 21.7257 42.6405 22.4472V26.2763C42.6405 26.9972 42.0582 27.58 41.3378 27.58H36.4282C35.7077 27.58 35.1249 26.9972 35.1249 26.2763V22.4472C35.1249 21.7257 35.7077 21.1434 36.4282 21.1434Z" fill="#F5FFF9"/>
<path fill-rule="evenodd" clip-rule="evenodd" d="M14.7583 31.4243H19.6717C20.3921 31.4243 20.9706 32.0033 20.9706 32.7232V36.5571C20.9706 37.2775 20.391 37.856 19.6717 37.856H14.7583C14.0378 37.856 13.4593 37.2764 13.4593 36.5571V32.7237C13.4593 32.0033 14.0378 31.4243 14.7583 31.4243Z" fill="#F5FFF9"/>
<path fill-rule="evenodd" clip-rule="evenodd" d="M25.5932 31.4243H30.5067C31.2271 31.4243 31.8051 32.0033 31.8051 32.7232V36.5571C31.8051 37.2775 31.226 37.856 30.5067 37.856H25.5932C24.8728 37.856 24.2943 37.2764 24.2943 36.5571V32.7237C24.2943 32.0033 24.8728 31.4243 25.5932 31.4243Z" fill="#F5FFF9"/>
<path fill-rule="evenodd" clip-rule="evenodd" d="M43.3187 30.9638L38.8884 36.4921C38.6923 36.7369 38.3056 36.7152 38.083 36.4921L36.8561 34.9088C36.212 34.0811 36.7115 33.28 37.3853 33.793L38.486 34.6255L41.541 31.4632C41.4722 31.4513 41.4023 31.4367 41.3297 31.4367H36.4244C35.7083 31.4367 35.1255 32.0157 35.1255 32.7318V36.5582C35.1255 37.2786 35.7083 37.8571 36.4244 37.8571H41.3302C42.0507 37.8571 42.6292 37.278 42.6292 36.5582V33.9403L43.9281 31.8857C44.4074 31.122 43.7331 30.4465 43.3187 30.9638Z" fill="#F5FFF9"/>
<path d="M4.72008 23.0365C4.42596 23.2213 4.14646 23.432 3.88971 23.6578C-0.617501 27.6293 1.38233 37.0522 4.61337 42.0274L4.82029 42.3491C8.047 47.3243 15.8356 52.9945 21.2972 50.4953C21.6114 50.3528 21.9147 50.18 22.2062 49.9888C24.2331 48.6352 25.5553 46.182 23.6963 44.5071L18.362 40.4246C17.7873 39.9837 16.9932 39.9533 16.3838 40.3482L14.9321 41.2907C13.8044 41.7771 12.2444 41.5085 11.5743 40.4701L9.07887 36.6253C8.40396 35.5859 8.79558 34.053 9.70017 33.2215L11.1518 32.2785C11.7612 31.8841 12.0559 31.148 11.8874 30.4422L10.3312 23.9065C9.56096 21.5264 6.78221 21.7338 4.72008 23.0365Z" fill="#F5FFF9"/>
</svg>
