<svg width="25" height="24" viewBox="0 0 25 24" fill="none" xmlns="http://www.w3.org/2000/svg">
<path d="M21.1295 13.0705C19.6029 10.747 17.7311 12.019 15.2471 12.625C12.7628 13.229 13.3595 9.28225 15.592 5.78075C17.8265 2.2795 15.6414 1.00525 13.9584 2.151C12.8421 2.9115 7.24112 5.46975 6.25186 3.01175C5.99022 2.36375 5.73648 1.6695 5.32808 1.25625C5.24062 1.168 5.20109 1.224 5.23073 1.3205C5.29225 1.519 5.33994 1.6715 5.42518 2.04875C5.51832 2.424 5.61542 2.8835 5.71449 3.41325C5.81777 3.943 5.90696 4.54475 5.98429 5.205C6.05767 5.865 6.12882 6.5835 6.15872 7.344C6.18046 7.72525 6.18837 8.1165 6.19825 8.51575C6.20616 8.71625 6.2022 8.919 6.20023 9.12375C6.19825 9.32825 6.19627 9.533 6.1943 9.74175C6.18639 10.153 6.18244 10.5642 6.19627 10.9817C6.2022 11.1902 6.21431 11.397 6.23012 11.6017C6.24791 11.8062 6.27163 12.009 6.31338 12.1957C6.33315 12.29 6.35884 12.3782 6.39072 12.4525C6.42036 12.5267 6.45816 12.585 6.48584 12.611C6.51548 12.635 6.52339 12.641 6.57107 12.645C6.61456 12.649 6.69189 12.637 6.77515 12.613C6.94588 12.5627 7.13809 12.4745 7.33624 12.3862C7.53464 12.298 7.74069 12.2037 7.95688 12.1255C8.38702 11.965 8.86287 11.8505 9.34663 11.8565C9.79876 11.8665 10.2509 11.9067 10.6949 11.999C11.1431 12.0892 11.5752 12.2497 11.9717 12.4525C12.3663 12.655 12.727 12.898 13.064 13.1507C13.7383 13.6542 14.3171 14.2062 14.8664 14.7257C15.4116 15.2455 15.9152 15.7592 16.3713 16.2207C16.5911 16.4312 16.8429 16.612 17.0828 16.7605C17.3286 16.911 17.5764 17.0272 17.8164 17.1075C18.3001 17.272 18.7562 17.2862 19.1152 17.2057C19.2936 17.1677 19.4502 17.1075 19.5829 17.0512C19.7138 16.9912 19.8228 16.931 19.906 16.8747C19.9498 16.8467 19.9873 16.8207 20.0192 16.7985C20.0489 16.7765 20.0745 16.7565 20.0946 16.7402C20.138 16.7082 20.1578 16.6922 20.1578 16.6922L20.16 16.6902C20.1699 16.6842 20.1798 16.6862 20.1877 16.6942C20.1917 16.7022 20.1917 16.7142 20.1838 16.7202C20.1838 16.7202 20.162 16.7382 20.1222 16.7725C20.1025 16.7905 20.0785 16.8125 20.0489 16.8387C20.0172 16.8627 19.9814 16.8887 19.9399 16.919C19.7734 17.0412 19.5135 17.2057 19.1389 17.3042C18.77 17.4045 18.2863 17.4145 17.7729 17.262C17.2614 17.1135 16.7162 16.8267 16.2186 16.3892C15.7407 15.9377 15.2291 15.4462 14.6739 14.9385C14.121 14.435 13.528 13.9052 12.8718 13.4215C12.5407 13.1807 12.1919 12.956 11.8171 12.7675C11.4423 12.583 11.0418 12.4405 10.6235 12.3582C10.2072 12.274 9.77702 12.2397 9.34465 12.2317C8.91649 12.2277 8.49227 12.33 8.08782 12.4825C7.8835 12.5587 7.68535 12.645 7.48695 12.7335C7.28683 12.8197 7.08843 12.912 6.87645 12.9742C6.76922 13.0022 6.65829 13.0262 6.5434 13.0182C6.42827 13.0102 6.31338 12.96 6.2321 12.8777C6.14884 12.7975 6.09522 12.6952 6.05149 12.593C6.00998 12.4885 5.98231 12.3822 5.95835 12.274C5.86916 11.8445 5.85334 11.413 5.84544 10.9877C5.83753 10.5622 5.84741 10.141 5.86125 9.72975C5.88299 8.905 5.8951 8.1085 5.87113 7.352C5.8573 6.5955 5.80764 5.88325 5.75625 5.225C5.6967 4.569 5.63321 3.967 5.5539 3.43725C5.48052 2.9055 5.40121 2.446 5.32585 2.06875C5.23666 1.60325 5.18527 1.3505 5.07212 1.188C4.76501 0.748498 4.31485 0.652248 3.7676 0.844748C2.95475 1.13375 2.35215 2.80925 2.5246 8.54975C2.68717 14.0375 5.68484 20.8637 11.6108 21.4597V22.1057C8.2919 22.1277 5.66705 22.3987 5.66705 22.7277C5.66705 23.073 8.51797 23.3517 12.0352 23.3517C15.5542 23.3517 18.4054 23.073 18.4054 22.7277C18.4054 22.3987 15.7803 22.1277 12.4614 22.1057V21.5057C18.9464 21.5017 22.9731 15.8815 21.1295 13.0705Z" fill="#110B56"/>
</svg>
